<?xml version="1.0"?><svg xmlns="http://www.w3.org/2000/svg" width="80" height="80"><rect x="0" y="0" width="100%" height="100%" fill="rgb(116, 185, 255)" /><polyline points="4.4,0,8.9333333333333,0,13.333333333333,4.4,13.333333333333,8.9333333333333,8.9333333333333,13.333333333333,4.4,13.333333333333,0,8.9333333333333,0,4.4,4.4,0" fill="#222" fill-opacity="0.028666666666667" stroke="#000" stroke-opacity="0.02" transform="translate(0, 0)" /><polyline points="4.4,0,8.9333333333333,0,13.333333333333,4.4,13.333333333333,8.9333333333333,8.9333333333333,13.333333333333,4.4,13.333333333333,0,8.9333333333333,0,4.4,4.4,0" fill="#222" fill-opacity="0.11533333333333" stroke="#000" stroke-opacity="0.02" transform="translate(13.333333333333, 0)" /><polyline points="4.4,0,8.9333333333333,0,13.333333333333,4.4,13.333333333333,8.9333333333333,8.9333333333333,13.333333333333,4.4,13.333333333333,0,8.9333333333333,0,4.4,4.4,0" fill="#ddd" fill-opacity="0.054666666666667" stroke="#000" stroke-opacity="0.02" transform="translate(26.666666666667, 0)" /><polyline points="4.4,0,8.9333333333333,0,13.333333333333,4.4,13.333333333333,8.9333333333333,8.9333333333333,13.333333333333,4.4,13.333333333333,0,8.9333333333333,0,4.4,4.4,0" fill="#222" fill-opacity="0.11533333333333" stroke="#000" stroke-opacity="0.02" transform="translate(40, 0)" /><polyline points="4.4,0,8.9333333333333,0,13.333333333333,4.4,13.333333333333,8.9333333333333,8.9333333333333,13.333333333333,4.4,13.333333333333,0,8.9333333333333,0,4.4,4.4,0" fill="#ddd" fill-opacity="0.089333333333333" stroke="#000" stroke-opacity="0.02" transform="translate(53.333333333333, 0)" /><polyline points="4.4,0,8.9333333333333,0,13.333333333333,4.4,13.333333333333,8.9333333333333,8.9333333333333,13.333333333333,4.4,13.333333333333,0,8.9333333333333,0,4.4,4.4,0" fill="#ddd" fill-opacity="0.089333333333333" stroke="#000" stroke-opacity="0.02" transform="translate(66.666666666667, 0)" /><polyline points="4.4,0,8.9333333333333,0,13.333333333333,4.4,13.333333333333,8.9333333333333,8.9333333333333,13.333333333333,4.4,13.333333333333,0,8.9333333333333,0,4.4,4.4,0" fill="#ddd" fill-opacity="0.124" stroke="#000" stroke-opacity="0.02" transform="translate(0, 13.333333333333)" /><polyline points="4.4,0,8.9333333333333,0,13.333333333333,4.4,13.333333333333,8.9333333333333,8.9333333333333,13.333333333333,4.4,13.333333333333,0,8.9333333333333,0,4.4,4.4,0" fill="#222" fill-opacity="0.13266666666667" stroke="#000" stroke-opacity="0.02" transform="translate(13.333333333333, 13.333333333333)" /><polyline points="4.4,0,8.9333333333333,0,13.333333333333,4.4,13.333333333333,8.9333333333333,8.9333333333333,13.333333333333,4.4,13.333333333333,0,8.9333333333333,0,4.4,4.4,0" fill="#222" fill-opacity="0.028666666666667" stroke="#000" stroke-opacity="0.02" transform="translate(26.666666666667, 13.333333333333)" /><polyline points="4.4,0,8.9333333333333,0,13.333333333333,4.4,13.333333333333,8.9333333333333,8.9333333333333,13.333333333333,4.4,13.333333333333,0,8.9333333333333,0,4.4,4.4,0" fill="#222" fill-opacity="0.098" stroke="#000" stroke-opacity="0.02" transform="translate(40, 13.333333333333)" /><polyline points="4.4,0,8.9333333333333,0,13.333333333333,4.4,13.333333333333,8.9333333333333,8.9333333333333,13.333333333333,4.4,13.333333333333,0,8.9333333333333,0,4.4,4.4,0" fill="#222" fill-opacity="0.13266666666667" stroke="#000" stroke-opacity="0.02" transform="translate(53.333333333333, 13.333333333333)" /><polyline points="4.4,0,8.9333333333333,0,13.333333333333,4.4,13.333333333333,8.9333333333333,8.9333333333333,13.333333333333,4.4,13.333333333333,0,8.9333333333333,0,4.4,4.4,0" fill="#222" fill-opacity="0.028666666666667" stroke="#000" stroke-opacity="0.02" transform="translate(66.666666666667, 13.333333333333)" /><polyline points="4.4,0,8.9333333333333,0,13.333333333333,4.4,13.333333333333,8.9333333333333,8.9333333333333,13.333333333333,4.4,13.333333333333,0,8.9333333333333,0,4.4,4.4,0" fill="#222" fill-opacity="0.11533333333333" stroke="#000" stroke-opacity="0.02" transform="translate(0, 26.666666666667)" /><polyline points="4.4,0,8.9333333333333,0,13.333333333333,4.4,13.333333333333,8.9333333333333,8.9333333333333,13.333333333333,4.4,13.333333333333,0,8.9333333333333,0,4.4,4.4,0" fill="#222" fill-opacity="0.028666666666667" stroke="#000" stroke-opacity="0.02" transform="translate(13.333333333333, 26.666666666667)" /><polyline points="4.4,0,8.9333333333333,0,13.333333333333,4.4,13.333333333333,8.9333333333333,8.9333333333333,13.333333333333,4.4,13.333333333333,0,8.9333333333333,0,4.4,4.4,0" fill="#ddd" fill-opacity="0.037333333333333" stroke="#000" stroke-opacity="0.02" transform="translate(26.666666666667, 26.666666666667)" /><polyline points="4.4,0,8.9333333333333,0,13.333333333333,4.4,13.333333333333,8.9333333333333,8.9333333333333,13.333333333333,4.4,13.333333333333,0,8.9333333333333,0,4.4,4.4,0" fill="#222" fill-opacity="0.046" stroke="#000" stroke-opacity="0.02" transform="translate(40, 26.666666666667)" /><polyline points="4.4,0,8.9333333333333,0,13.333333333333,4.4,13.333333333333,8.9333333333333,8.9333333333333,13.333333333333,4.4,13.333333333333,0,8.9333333333333,0,4.4,4.4,0" fill="#ddd" fill-opacity="0.037333333333333" stroke="#000" stroke-opacity="0.02" transform="translate(53.333333333333, 26.666666666667)" /><polyline points="4.4,0,8.9333333333333,0,13.333333333333,4.4,13.333333333333,8.9333333333333,8.9333333333333,13.333333333333,4.4,13.333333333333,0,8.9333333333333,0,4.4,4.4,0" fill="#ddd" fill-opacity="0.072" stroke="#000" stroke-opacity="0.02" transform="translate(66.666666666667, 26.666666666667)" /><polyline points="4.4,0,8.9333333333333,0,13.333333333333,4.4,13.333333333333,8.9333333333333,8.9333333333333,13.333333333333,4.4,13.333333333333,0,8.9333333333333,0,4.4,4.4,0" fill="#ddd" fill-opacity="0.124" stroke="#000" stroke-opacity="0.02" transform="translate(0, 40)" /><polyline points="4.4,0,8.9333333333333,0,13.333333333333,4.4,13.333333333333,8.9333333333333,8.9333333333333,13.333333333333,4.4,13.333333333333,0,8.9333333333333,0,4.4,4.4,0" fill="#222" fill-opacity="0.028666666666667" stroke="#000" stroke-opacity="0.02" transform="translate(13.333333333333, 40)" /><polyline points="4.4,0,8.9333333333333,0,13.333333333333,4.4,13.333333333333,8.9333333333333,8.9333333333333,13.333333333333,4.4,13.333333333333,0,8.9333333333333,0,4.4,4.4,0" fill="#ddd" fill-opacity="0.02" stroke="#000" stroke-opacity="0.02" transform="translate(26.666666666667, 40)" /><polyline points="4.4,0,8.9333333333333,0,13.333333333333,4.4,13.333333333333,8.9333333333333,8.9333333333333,13.333333333333,4.4,13.333333333333,0,8.9333333333333,0,4.4,4.4,0" fill="#ddd" fill-opacity="0.14133333333333" stroke="#000" stroke-opacity="0.02" transform="translate(40, 40)" /><polyline points="4.4,0,8.9333333333333,0,13.333333333333,4.4,13.333333333333,8.9333333333333,8.9333333333333,13.333333333333,4.4,13.333333333333,0,8.9333333333333,0,4.4,4.4,0" fill="#222" fill-opacity="0.13266666666667" stroke="#000" stroke-opacity="0.02" transform="translate(53.333333333333, 40)" /><polyline points="4.4,0,8.9333333333333,0,13.333333333333,4.4,13.333333333333,8.9333333333333,8.9333333333333,13.333333333333,4.4,13.333333333333,0,8.9333333333333,0,4.4,4.4,0" fill="#ddd" fill-opacity="0.02" stroke="#000" stroke-opacity="0.02" transform="translate(66.666666666667, 40)" /><polyline points="4.4,0,8.9333333333333,0,13.333333333333,4.4,13.333333333333,8.9333333333333,8.9333333333333,13.333333333333,4.4,13.333333333333,0,8.9333333333333,0,4.4,4.4,0" fill="#ddd" fill-opacity="0.037333333333333" stroke="#000" stroke-opacity="0.02" transform="translate(0, 53.333333333333)" /><polyline points="4.4,0,8.9333333333333,0,13.333333333333,4.4,13.333333333333,8.9333333333333,8.9333333333333,13.333333333333,4.4,13.333333333333,0,8.9333333333333,0,4.4,4.4,0" fill="#222" fill-opacity="0.098" stroke="#000" stroke-opacity="0.02" transform="translate(13.333333333333, 53.333333333333)" /><polyline points="4.4,0,8.9333333333333,0,13.333333333333,4.4,13.333333333333,8.9333333333333,8.9333333333333,13.333333333333,4.4,13.333333333333,0,8.9333333333333,0,4.4,4.4,0" fill="#222" fill-opacity="0.063333333333333" stroke="#000" stroke-opacity="0.02" transform="translate(26.666666666667, 53.333333333333)" /><polyline points="4.4,0,8.9333333333333,0,13.333333333333,4.4,13.333333333333,8.9333333333333,8.9333333333333,13.333333333333,4.4,13.333333333333,0,8.9333333333333,0,4.4,4.4,0" fill="#222" fill-opacity="0.098" stroke="#000" stroke-opacity="0.02" transform="translate(40, 53.333333333333)" /><polyline points="4.4,0,8.9333333333333,0,13.333333333333,4.4,13.333333333333,8.9333333333333,8.9333333333333,13.333333333333,4.4,13.333333333333,0,8.9333333333333,0,4.4,4.4,0" fill="#222" fill-opacity="0.028666666666667" stroke="#000" stroke-opacity="0.02" transform="translate(53.333333333333, 53.333333333333)" /><polyline points="4.4,0,8.9333333333333,0,13.333333333333,4.4,13.333333333333,8.9333333333333,8.9333333333333,13.333333333333,4.4,13.333333333333,0,8.9333333333333,0,4.4,4.4,0" fill="#222" fill-opacity="0.028666666666667" stroke="#000" stroke-opacity="0.02" transform="translate(66.666666666667, 53.333333333333)" /><polyline points="4.4,0,8.9333333333333,0,13.333333333333,4.4,13.333333333333,8.9333333333333,8.9333333333333,13.333333333333,4.4,13.333333333333,0,8.9333333333333,0,4.4,4.4,0" fill="#222" fill-opacity="0.046" stroke="#000" stroke-opacity="0.02" transform="translate(0, 66.666666666667)" /><polyline points="4.4,0,8.9333333333333,0,13.333333333333,4.4,13.333333333333,8.9333333333333,8.9333333333333,13.333333333333,4.4,13.333333333333,0,8.9333333333333,0,4.4,4.4,0" fill="#ddd" fill-opacity="0.10666666666667" stroke="#000" stroke-opacity="0.02" transform="translate(13.333333333333, 66.666666666667)" /><polyline points="4.4,0,8.9333333333333,0,13.333333333333,4.4,13.333333333333,8.9333333333333,8.9333333333333,13.333333333333,4.4,13.333333333333,0,8.9333333333333,0,4.4,4.4,0" fill="#222" fill-opacity="0.098" stroke="#000" stroke-opacity="0.02" transform="translate(26.666666666667, 66.666666666667)" /><polyline points="4.4,0,8.9333333333333,0,13.333333333333,4.4,13.333333333333,8.9333333333333,8.9333333333333,13.333333333333,4.4,13.333333333333,0,8.9333333333333,0,4.4,4.4,0" fill="#222" fill-opacity="0.028666666666667" stroke="#000" stroke-opacity="0.02" transform="translate(40, 66.666666666667)" /><polyline points="4.4,0,8.9333333333333,0,13.333333333333,4.4,13.333333333333,8.9333333333333,8.9333333333333,13.333333333333,4.4,13.333333333333,0,8.9333333333333,0,4.4,4.4,0" fill="#222" fill-opacity="0.046" stroke="#000" stroke-opacity="0.02" transform="translate(53.333333333333, 66.666666666667)" /><polyline points="4.4,0,8.9333333333333,0,13.333333333333,4.4,13.333333333333,8.9333333333333,8.9333333333333,13.333333333333,4.4,13.333333333333,0,8.9333333333333,0,4.4,4.4,0" fill="#222" fill-opacity="0.046" stroke="#000" stroke-opacity="0.02" transform="translate(66.666666666667, 66.666666666667)" /></svg>